<?xml version="1.0" encoding="utf-8"?>
<!-- Generator: Adobe Illustrator 27.9.0, SVG Export Plug-In . SVG Version: 6.00 Build 0)  -->
<!DOCTYPE svg PUBLIC "-//W3C//DTD SVG 1.1//EN" "http://www.w3.org/Graphics/SVG/1.1/DTD/svg11.dtd" [
	<!ENTITY ns_extend "http://ns.adobe.com/Extensibility/1.0/">
	<!ENTITY ns_ai "http://ns.adobe.com/AdobeIllustrator/10.0/">
	<!ENTITY ns_graphs "http://ns.adobe.com/Graphs/1.0/">
	<!ENTITY ns_vars "http://ns.adobe.com/Variables/1.0/">
	<!ENTITY ns_imrep "http://ns.adobe.com/ImageReplacement/1.0/">
	<!ENTITY ns_sfw "http://ns.adobe.com/SaveForWeb/1.0/">
	<!ENTITY ns_custom "http://ns.adobe.com/GenericCustomNamespace/1.0/">
	<!ENTITY ns_adobe_xpath "http://ns.adobe.com/XPath/1.0/">
]>
<svg version="1.1" id="aws" xmlns:x="&ns_extend;" xmlns:i="&ns_ai;" xmlns:graph="&ns_graphs;"
	 xmlns="http://www.w3.org/2000/svg" xmlns:xlink="http://www.w3.org/1999/xlink" x="0px" y="0px" width="57.6px" height="36px"
	 viewBox="0 0 57.6 36" style="enable-background:new 0 0 57.6 36;" xml:space="preserve">
<metadata>
	<sfw  xmlns="&ns_sfw;">
		<slices></slices>
		<sliceSourceBounds  bottomLeftOrigin="true" height="36" width="57.6" x="0" y="0"></sliceSourceBounds>
	</sfw>
</metadata>
<path d="M29.4,4.5c-1.6,6.5-1.5,6.1-2.9,12c0,0.5-0.5,1-1,1c-0.1,0-0.1,0-0.2,0h0h-1.6c0,0-0.1,0-0.2,0c-0.5,0-0.9-0.4-1-0.8v0
	C21.2,12.3,19.3,6.1,18.1,2c-0.5-1.5-0.2-1.5,1-1.5c0.4,0,0.8,0,1.2,0c0,0,0.1,0,0.1,0c0.5,0,0.9,0.3,0.9,0.8v0
	c0.4,1.5,0.7,2.6,3,11.7c0,0.2,0.1,0.4,0.2,0.5h0.1c0.1-0.2,0.1-0.4,0.2-0.7c0.9-3.7,1.8-7.4,2.6-11.1c0.3-1.2,0.8-1.3,1.9-1.3h0.9
	c0.8,0,1,0.2,1.2,0.9c0.7,2.6,2.6,11.4,3,12.4c0.6-2.1-0.2,0.9,3.2-12.3c0.2-0.9,0.5-1.1,1.4-1.1h1.4c0.6,0,0.8,0.2,0.6,0.8
	c-0.3,1.1-0.3,1.1-4.6,14.9c-0.3,1.1-0.5,1.2-1.6,1.2h-1.2c-0.8,0-1-0.1-1.2-0.9C31.9,14.7,29.7,5.8,29.4,4.5L29.4,4.5z M14.1,17
	c0.2,0.3,0.5,0.6,0.9,0.6c0.3,0,0.5-0.1,0.7-0.3l0.7-0.5c0.8-0.5,0.8-0.7,0.4-1.5c-0.4-0.9-0.7-1.9-0.7-2.9c0,0,0-0.1,0-0.1v0
	c0-0.4,0.1-6.3-0.1-7.5c-0.1-2.1-1.6-3.8-3.5-4.3l0,0C11.6,0.2,10.6,0,9.6,0c-0.3,0-0.6,0-0.9,0l0,0C7,0.1,5.4,0.6,3.9,1.4l0.1,0
	C3.7,1.5,3.6,1.7,3.5,1.9l0,0C3.4,2.2,3.4,2.5,3.4,2.9c0,0.1,0,0.3,0,0.4l0,0c0.1,0.7,0.3,0.8,0.9,0.6C4.9,3.7,5.5,3.4,6,3.2
	c0.8-0.3,1.8-0.5,2.8-0.5c0.8,0,1.5,0.1,2.2,0.3L11,3c0.8,0.2,1.4,0.8,1.6,1.5l0,0c0.2,0.6,0.3,1.3,0.3,2.1c0,0.2,0,0.5,0,0.7l0,0
	c0,0.6,0,0.6-0.6,0.5c-1-0.3-2.2-0.4-3.4-0.4c-0.4,0-0.9,0-1.3,0.1l0.1,0c-1.7,0.1-3.3,1-4.3,2.2l0,0c-0.6,0.9-1,1.9-1,3.1
	c0,0.5,0.1,0.9,0.2,1.4l0,0c0.2,1.6,1.4,2.9,2.9,3.4l0,0C6.1,17.8,6.8,18,7.6,18c1.6,0,3.1-0.5,4.2-1.5l0,0c0.4-0.3,0.8-0.7,1.2-1.1
	C13.5,16,13.8,16.5,14.1,17L14.1,17z M12.4,10.1L12.4,10.1c0.3,0,0.5,0.2,0.5,0.5c0,0,0,0.1,0,0.1v0c0,0.4,0,0.9,0,1.3
	c-0.1,1.3-0.9,2.3-2,2.8l0,0c-0.7,0.4-1.5,0.6-2.4,0.6c-0.2,0-0.4,0-0.5,0l0,0c-1.3-0.1-2.3-1.1-2.3-2.4c0-0.2,0-0.4,0.1-0.6l0,0
	C5.8,11,6.8,10,8.1,9.9h0c0.5-0.1,1.1-0.1,1.7-0.1C10.7,9.8,11.6,9.9,12.4,10.1L12.4,10.1L12.4,10.1z M51.6,17.4
	c2-0.7,3.4-2.5,3.4-4.7c0-0.3,0-0.7-0.1-1l0,0c-0.3-1.6-1.4-2.8-2.8-3.3l0,0c-2.2-0.7-4-1.4-5.7-2.2l0.3,0.1
	c-0.5-0.3-0.8-0.8-0.9-1.3v0c0-0.1,0-0.2,0-0.3c0-1,0.8-1.8,1.7-1.9h0c0.5-0.1,1.1-0.2,1.7-0.2c0.5,0,1,0.1,1.5,0.2l0,0
	c0.8,0.2,1.6,0.5,2.4,0.7c0.3,0.1,0.7,0.2,0.9-0.2c0.1-0.2,0.2-0.5,0.2-0.8c0-0.7-0.4-1.3-1-1.7l0,0C52,0.3,50.6,0,49.1,0
	c-1.3,0-2.6,0.3-3.7,0.7l0.1,0c-1.7,0.7-2.9,2.4-2.9,4.3c0,1.9,1.1,3.5,2.7,4.2l0,0c0.9,0.4,1.8,0.7,2.7,1s1.8,0.7,2.7,1
	c0.6,0.3,1,1,1,1.7c0,0.7-0.3,1.3-0.9,1.6l0,0c-3.1,1.7-7.3-0.3-7.8-0.4c-0.4-0.1-0.6,0-0.7,0.4c-0.1,0.2-0.1,0.5-0.1,0.7
	c0,0.9,0.6,1.6,1.4,1.8l0,0c1.3,0.5,2.7,0.8,4.3,0.8C49.3,18,50.5,17.8,51.6,17.4L51.6,17.4L51.6,17.4z M33.3,35.7
	c6-0.6,11.4-2.5,16.2-5.4l-0.2,0.1c0.9-0.5,1.7-1.2,2.6-1.8c0.8-0.6,0.4-2.1-1.3-1.4c-5.6,2.5-12.2,4-19,4.4l-0.1,0
	c-0.7,0-1.6,0.1-2.4,0.1c-2.8,0-5.5-0.2-8.1-0.6l0.3,0c-7.5-1.1-14.2-3.5-20.2-7l0.3,0.1c-0.2-0.1-0.5-0.3-0.7-0.3l0,0
	C0,23.8-0.3,24.5,0.3,25c7.4,6.8,17.3,11,28.1,11h0h0C30.1,35.9,31.7,35.9,33.3,35.7L33.3,35.7z M53,25.4c1.7,0.1,2.2,0.7,1.8,2.3
	c-0.4,1.7-1,3.3-1.6,4.9c-0.1,0.3-0.5,0.7-0.1,1c0.4,0.3,0.7-0.1,1-0.4c1.1-1,2-2.3,2.5-3.7l0-0.1c0.6-1.4,1-2.9,1-4.6
	c0,0,0-0.1,0-0.1v0c0-0.7-0.2-1-0.9-1.2c-0.5-0.2-1.2-0.3-1.8-0.4l0,0c-0.4-0.1-0.9-0.1-1.5-0.1c-2,0-3.9,0.5-5.6,1.3l0.1,0
	c-0.4,0.2-0.7,0.4-1,0.7l0,0c-0.1,0.1-0.4,0.6,0.3,0.7c0.1,0,0.1,0,0.2,0c0.2,0,0.3,0,0.5,0l0,0c1.3-0.2,2.7-0.3,4.2-0.3
	C52.4,25.3,52.7,25.3,53,25.4L53,25.4L53,25.4z"/>
</svg>
