<?xml version="1.0" encoding="utf-8"?>
<!-- Generator: Adobe Illustrator 27.5.0, SVG Export Plug-In . SVG Version: 6.00 Build 0)  -->
<!DOCTYPE svg PUBLIC "-//W3C//DTD SVG 1.1//EN" "http://www.w3.org/Graphics/SVG/1.1/DTD/svg11.dtd" [
	<!ENTITY ns_extend "http://ns.adobe.com/Extensibility/1.0/">
	<!ENTITY ns_ai "http://ns.adobe.com/AdobeIllustrator/10.0/">
	<!ENTITY ns_graphs "http://ns.adobe.com/Graphs/1.0/">
	<!ENTITY ns_vars "http://ns.adobe.com/Variables/1.0/">
	<!ENTITY ns_imrep "http://ns.adobe.com/ImageReplacement/1.0/">
	<!ENTITY ns_sfw "http://ns.adobe.com/SaveForWeb/1.0/">
	<!ENTITY ns_custom "http://ns.adobe.com/GenericCustomNamespace/1.0/">
	<!ENTITY ns_adobe_xpath "http://ns.adobe.com/XPath/1.0/">
]>
<svg version="1.1"
	 id="Layer_1" xmlns:x="&ns_extend;" xmlns:i="&ns_ai;" xmlns:graph="&ns_graphs;" xmlns:svgjs="http://svgjs.com/svgjs"
	 xmlns="http://www.w3.org/2000/svg" xmlns:xlink="http://www.w3.org/1999/xlink" x="0px" y="0px" width="49.4px" height="36px"
	 viewBox="0 0 49.4 36" style="enable-background:new 0 0 49.4 36;" xml:space="preserve">
<metadata>
	<sfw  xmlns="&ns_sfw;">
		<slices></slices>
		<sliceSourceBounds  bottomLeftOrigin="true" height="33.6" width="46.8" x="1.3" y="0.8"></sliceSourceBounds>
	</sfw>
</metadata>
<g>
	<g>
		<path d="M13.7,8L1.3,29.2h12.8L26.3,1.6L13.7,8z M13.4,27.3c-0.1,0.3-0.4,0.4-0.7,0.4H5c-0.3,0-0.5-0.1-0.6-0.4
			c-0.1-0.2-0.1-0.5,0-0.8L14.6,9.2C14.6,9.1,14.8,9,14.9,9l6.6-3.4c0.1-0.1,0.2-0.1,0.3-0.1c0.2,0,0.4,0.1,0.5,0.2
			c0.2,0.2,0.3,0.6,0.2,0.9L13.4,27.3z"/>
	</g>
	<g>
		<path d="M30,4.1l-6.7,15.4l10.3,13.1c0.2,0.2,0.2,0.5,0.1,0.8c-0.1,0.3-0.4,0.4-0.7,0.4h-20v1.4h35.2L30,4.1z M44.4,33.8h-7.8
			c-0.2,0-0.5-0.1-0.6-0.3L25.1,19.7c-0.2-0.2-0.2-0.5-0.1-0.8l4.5-10.3c0.1-0.3,0.4-0.4,0.7-0.5h0c0.3,0,0.5,0.1,0.7,0.4L45,32.7
			c0.1,0.2,0.1,0.5,0,0.8C44.9,33.7,44.7,33.8,44.4,33.8z"/>
	</g>
</g>
</svg>
