<?xml version="1.0" encoding="utf-8"?>
<!-- Generator: Adobe Illustrator 26.5.3, SVG Export Plug-In . SVG Version: 6.00 Build 0)  -->
<svg version="1.1" id="SvgjsSvg1001" xmlns:svgjs="http://svgjs.com/svgjs"
	 xmlns="http://www.w3.org/2000/svg" xmlns:xlink="http://www.w3.org/1999/xlink" x="0px" y="0px" width="39.273px" height="36px"
	 viewBox="0 0 39.273 36" style="enable-background:new 0 0 39.273 36;" xml:space="preserve">
<g id="SvgjsG1008">
	<path d="M35.182,36H4.091C1.833,35.997,0.003,34.167,0,31.909V4.091C0,1.834,1.836,0,4.091,0h31.091
		c2.255,0,4.091,1.834,4.091,4.091v27.818C39.273,34.166,37.437,36,35.182,36z M4.091,1.636c-1.353,0-2.455,1.101-2.455,2.455
		v27.818c0,1.353,1.101,2.455,2.455,2.455h31.091c1.353,0,2.455-1.101,2.455-2.455V4.091c0-1.353-1.101-2.455-2.455-2.455H4.091z"/>
	<path d="M38.455,8.182H0.818C0.366,8.182,0,7.816,0,7.364c0-0.452,0.366-0.818,0.818-0.818h37.636c0.452,0,0.818,0.366,0.818,0.818
		C39.273,7.816,38.906,8.182,38.455,8.182z M7.364,26.182c-0.217,0.003-0.425-0.087-0.573-0.245
		c-0.162-0.146-0.252-0.355-0.245-0.573c0-0.213,0.082-0.425,0.245-0.574c0.213-0.229,0.573-0.309,0.884-0.178
		c0.098,0.033,0.196,0.098,0.262,0.178c0.164,0.149,0.245,0.362,0.245,0.574c0,0.229-0.082,0.425-0.245,0.573
		C7.789,26.095,7.581,26.184,7.364,26.182z M23.727,22.091h-4.909c-0.452,0-0.818-0.366-0.818-0.818
		c0-0.452,0.366-0.818,0.818-0.818h4.909c0.452,0,0.818,0.366,0.818,0.818C24.545,21.725,24.179,22.091,23.727,22.091z"/>
	<path d="M23.727,26.182h-3.273c-1.353,0-2.455-1.101-2.455-2.455v-4.909c0-1.353,1.101-2.455,2.455-2.455h3.273
		c0.452,0,0.818,0.366,0.818,0.818c0,0.452-0.366,0.818-0.818,0.818h-3.273c-0.452,0-0.818,0.366-0.818,0.818v4.909
		c0,0.452,0.366,0.818,0.818,0.818h3.273c0.452,0,0.818,0.366,0.818,0.818C24.545,25.816,24.179,26.182,23.727,26.182z
		 M15.545,26.182c-0.287-0.001-0.554-0.151-0.702-0.398l-3.389-5.649v5.228c0,0.452-0.366,0.818-0.818,0.818
		c-0.452,0-0.818-0.366-0.818-0.818v-8.182c0.001-0.452,0.368-0.818,0.82-0.817c0.287,0,0.553,0.152,0.701,0.398l3.389,5.647v-5.228
		c0-0.452,0.366-0.818,0.818-0.818c0.452,0,0.818,0.366,0.818,0.818v8.182c0.002,0.45-0.362,0.816-0.812,0.818
		C15.55,26.182,15.548,26.182,15.545,26.182z M29.455,26.182c-0.452,0-0.818-0.366-0.818-0.818v-8.182
		c0-0.452,0.366-0.818,0.818-0.818c0.452,0,0.818,0.366,0.818,0.818v8.182C30.273,25.816,29.906,26.182,29.455,26.182z"/>
	<path d="M31.909,18H27c-0.452,0-0.818-0.366-0.818-0.818c0-0.452,0.366-0.818,0.818-0.818h4.909c0.452,0,0.818,0.366,0.818,0.818
		C32.727,17.634,32.361,18,31.909,18z"/>
</g>
</svg>
