<?xml version="1.0" encoding="utf-8"?>
<!-- Generator: Adobe Illustrator 26.5.3, SVG Export Plug-In . SVG Version: 6.00 Build 0)  -->
<svg version="1.1" id="flutter" xmlns="http://www.w3.org/2000/svg" xmlns:xlink="http://www.w3.org/1999/xlink" x="0px" y="0px"
	 width="29.252px" height="36px" viewBox="0 0 29.252 36" style="enable-background:new 0 0 29.252 36;" xml:space="preserve">
<path d="M28.499,36H17.953c-0.199,0-0.39-0.079-0.531-0.221l-9.255-9.302c-0.291-0.293-0.291-0.766,0-1.059l9.257-9.282
	c0.141-0.141,0.333-0.221,0.532-0.222h10.544c0.416,0.004,0.75,0.344,0.746,0.76c-0.002,0.194-0.078,0.379-0.213,0.518l-8.715,8.757
	l8.715,8.769c0.293,0.293,0.294,0.767,0.001,1.061C28.892,35.921,28.699,36.001,28.499,36z M18.265,34.5h8.432l-7.97-8.019
	c-0.291-0.293-0.291-0.765,0-1.058l7.968-8.007h-8.429l-8.51,8.534L18.265,34.5z M6.041,24.069c-0.199,0-0.39-0.079-0.531-0.221
	l-5.292-5.319c-0.291-0.293-0.291-0.766,0-1.059L17.404,0.22c0.188-0.188,0.45-0.255,0.689-0.204h10.385
	c0.416,0.004,0.75,0.344,0.746,0.76c-0.002,0.194-0.078,0.379-0.213,0.518L6.574,23.848C6.433,23.99,6.241,24.069,6.041,24.069z
	 M1.808,18l4.235,4.256l20.63-20.739h-8.444L1.808,18z"/>
</svg>
