<?xml version="1.0" encoding="utf-8"?>
<!-- Generator: Adobe Illustrator 26.5.3, SVG Export Plug-In . SVG Version: 6.00 Build 0)  -->
<svg version="1.1" id="Layer_1" xmlns:svgjs="http://svgjs.com/svgjs"
	 xmlns="http://www.w3.org/2000/svg" xmlns:xlink="http://www.w3.org/1999/xlink" x="0px" y="0px" width="30.395px" height="36px"
	 viewBox="0 0 30.395 36" style="enable-background:new 0 0 30.395 36;" xml:space="preserve">
<g>
	<path d="M15.643,8.609H14.86V7.826C14.86,2.71,17.57,0,22.686,0h0.782v0.783C23.469,5.899,20.759,8.609,15.643,8.609L15.643,8.609z
		 M21.874,1.595c-3.404,0.235-5.185,2.015-5.429,5.429C19.908,6.789,21.649,5.048,21.874,1.595z M21.903,36
		c-1.261-0.001-2.502-0.306-3.619-0.89c-1.647-0.882-3.626-0.882-5.273,0c-1.117,0.584-2.359,0.889-3.62,0.89
		C4.128,36,0,28.78,0,19.565C0,13.96,4.216,9.391,9.391,9.391c0.969,0,1.931,0.162,2.847,0.479l2.906,1.007
		c0.333,0.115,0.694,0.115,1.027,0l2.896-1.007c0.913-0.316,1.871-0.478,2.837-0.479c2.827,0,5.468,1.36,7.268,3.727l0.685,0.91
		l-1.096,0.313c-2.813,0.811-4.687,3.465-4.509,6.388c0.178,2.922,2.361,5.329,5.252,5.792l0.89,0.147l-0.274,0.861
		C28.497,32.752,25.337,36,21.903,36L21.903,36z M15.643,32.869c1.174,0.009,2.328,0.301,3.365,0.851
		c0.892,0.471,1.887,0.716,2.896,0.714c2.563,0,4.999-2.495,6.466-6.564c-3.37-0.946-5.695-4.023-5.684-7.523
		c0.014-3.043,1.781-5.805,4.539-7.092c-1.438-1.467-3.326-2.299-5.321-2.299c-0.792,0-1.579,0.132-2.328,0.391l-2.905,1.007
		c-0.663,0.228-1.382,0.228-2.045,0l-2.915-1.007c-0.749-0.259-1.536-0.391-2.328-0.391c-4.314,0-7.826,3.864-7.826,8.609
		c0,8.061,3.58,14.869,7.826,14.869c1.009,0.003,2.004-0.242,2.896-0.714C13.314,33.171,14.469,32.879,15.643,32.869z"/>
</g>
</svg>
