<?xml version="1.0" encoding="utf-8"?>
<!-- Generator: Adobe Illustrator 26.5.3, SVG Export Plug-In . SVG Version: 6.00 Build 0)  -->
<svg version="1.1" id="Layer_1" xmlns:svgjs="http://svgjs.com/svgjs"
	 xmlns="http://www.w3.org/2000/svg" xmlns:xlink="http://www.w3.org/1999/xlink" x="0px" y="0px" width="28.8px" height="36px"
	 viewBox="0 0 28.8 36" style="enable-background:new 0 0 28.8 36;" xml:space="preserve">
<g>
	<path d="M21.424,0.176C21.312,0.063,21.159,0,21,0H4.2C1.881,0.003,0.003,1.881,0,4.2v27.6c0.003,2.319,1.881,4.197,4.2,4.2h20.4
		c2.319-0.003,4.197-1.881,4.2-4.2v-24c0-0.159-0.063-0.312-0.176-0.424L21.424,0.176z M21.6,2.048L26.752,7.2H24.6
		c-1.656-0.002-2.998-1.344-3-3V2.048z M4.2,1.2h16.2v3c0.003,2.319,1.881,4.197,4.2,4.2h3v16.8H1.2v-21
		C1.202,2.544,2.544,1.202,4.2,1.2z M24.6,34.8H4.2c-1.656-0.002-2.998-1.344-3-3v-5.4h26.4v5.4
		C27.598,33.456,26.256,34.798,24.6,34.8z"/>
	<path d="M13.2,27.6c-0.331,0-0.6,0.269-0.6,0.6v3.6c0,0.331-0.269,0.6-0.6,0.6s-0.6-0.269-0.6-0.6c0-0.331-0.269-0.6-0.6-0.6
		s-0.6,0.269-0.6,0.6c0,0.994,0.806,1.8,1.8,1.8s1.8-0.806,1.8-1.8l0,0v-3.6C13.8,27.869,13.531,27.6,13.2,27.6z M16.8,28.8H18
		c0.331,0,0.6-0.269,0.6-0.6c0-0.331-0.269-0.6-0.6-0.6h-1.2c-0.994,0-1.8,0.806-1.8,1.8s0.806,1.8,1.8,1.8
		c0.331,0,0.6,0.269,0.6,0.6c0,0.331-0.269,0.6-0.6,0.6h-1.2c-0.331,0-0.6,0.269-0.6,0.6s0.269,0.6,0.6,0.6h1.2
		c0.994,0,1.8-0.806,1.8-1.8c0-0.994-0.806-1.8-1.8-1.8c-0.331,0-0.6-0.269-0.6-0.6C16.2,29.069,16.469,28.8,16.8,28.8z"/>
	<circle cx="16.8" cy="15" r="0.6"/>
	<circle cx="12" cy="15" r="0.6"/>
	<circle cx="14.4" cy="15" r="0.6"/>
	<path d="M6.6,15.6c0.331,0,0.6,0.269,0.6,0.6v2.4c0.001,0.994,0.806,1.799,1.8,1.8c0.331,0,0.6-0.269,0.6-0.6
		c0-0.331-0.269-0.6-0.6-0.6c-0.331,0-0.6-0.269-0.6-0.6v-2.4c0-0.443-0.163-0.871-0.459-1.2c0.296-0.329,0.46-0.757,0.459-1.2v-2.4
		c0-0.331,0.269-0.6,0.6-0.6c0.331,0,0.6-0.269,0.6-0.6S9.331,9.6,9,9.6c-0.994,0.001-1.799,0.806-1.8,1.8v2.4
		c0,0.331-0.269,0.6-0.6,0.6C6.269,14.4,6,14.669,6,15S6.269,15.6,6.6,15.6z M20.4,18.6c0,0.331-0.269,0.6-0.6,0.6
		c-0.331,0-0.6,0.269-0.6,0.6c0,0.331,0.269,0.6,0.6,0.6c0.994-0.001,1.799-0.806,1.8-1.8v-2.4c0-0.331,0.269-0.6,0.6-0.6
		c0.331,0,0.6-0.269,0.6-0.6s-0.269-0.6-0.6-0.6c-0.331,0-0.6-0.269-0.6-0.6v-2.4c-0.001-0.994-0.806-1.799-1.8-1.8
		c-0.331,0-0.6,0.269-0.6,0.6s0.269,0.6,0.6,0.6c0.331,0,0.6,0.269,0.6,0.6v2.4c0,0.443,0.163,0.871,0.459,1.2
		c-0.296,0.329-0.46,0.757-0.459,1.2V18.6z"/>
</g>
</svg>
