<?xml version="1.0" encoding="utf-8"?>
<!-- Generator: Adobe Illustrator 27.5.0, SVG Export Plug-In . SVG Version: 6.00 Build 0)  -->
<!DOCTYPE svg PUBLIC "-//W3C//DTD SVG 1.1//EN" "http://www.w3.org/Graphics/SVG/1.1/DTD/svg11.dtd" [
	<!ENTITY ns_extend "http://ns.adobe.com/Extensibility/1.0/">
	<!ENTITY ns_ai "http://ns.adobe.com/AdobeIllustrator/10.0/">
	<!ENTITY ns_graphs "http://ns.adobe.com/Graphs/1.0/">
	<!ENTITY ns_vars "http://ns.adobe.com/Variables/1.0/">
	<!ENTITY ns_imrep "http://ns.adobe.com/ImageReplacement/1.0/">
	<!ENTITY ns_sfw "http://ns.adobe.com/SaveForWeb/1.0/">
	<!ENTITY ns_custom "http://ns.adobe.com/GenericCustomNamespace/1.0/">
	<!ENTITY ns_adobe_xpath "http://ns.adobe.com/XPath/1.0/">
]>
<svg version="1.1"
	 id="Layer_1" xmlns:x="&ns_extend;" xmlns:i="&ns_ai;" xmlns:graph="&ns_graphs;" xmlns:svgjs="http://svgjs.com/svgjs"
	 xmlns="http://www.w3.org/2000/svg" xmlns:xlink="http://www.w3.org/1999/xlink" x="0px" y="0px" width="47.2px" height="36px"
	 viewBox="0 0 47.2 36" style="enable-background:new 0 0 47.2 36;" xml:space="preserve">
<metadata>
	<sfw  xmlns="&ns_sfw;">
		<slices></slices>
		<sliceSourceBounds  bottomLeftOrigin="true" height="36" width="47.2" x="0" y="0"></sliceSourceBounds>
	</sfw>
</metadata>
<g>
	<path d="M9.8,34.6H3.5c-1.2,0-2.2-1-2.2-2.2V9.3h28.3c0.4,0,0.7-0.3,0.7-0.7S30,7.9,29.6,7.9H1.4V3.5c0-1.2,1-2.2,2.2-2.2h8.9
		c0.4,0,0.7-0.3,0.7-0.7S12.8,0,12.5,0H3.5C1.6,0,0,1.6,0,3.5v28.9c0,2,1.6,3.5,3.5,3.5h6.3c0.4,0,0.7-0.3,0.7-0.7
		S10.2,34.6,9.8,34.6L9.8,34.6z"/>
	<path d="M43.6,0H16.1c-0.4,0-0.7,0.3-0.7,0.7s0.3,0.7,0.7,0.7h27.6c1.2,0,2.2,1,2.2,2.2v4.3H33.2c-0.4,0-0.7,0.3-0.7,0.7
		s0.3,0.7,0.7,0.7h12.6v23.2c0,1.2-1,2.2-2.2,2.2H13.3c-0.4,0-0.7,0.3-0.7,0.7s0.3,0.7,0.7,0.7h30.4c2,0,3.5-1.6,3.5-3.5V3.5
		C47.2,1.6,45.6,0,43.6,0z"/>
	<circle cx="5.9" cy="4.6" r="1.3"/>
	<circle cx="9.8" cy="4.6" r="1.3"/>
	<circle cx="13.7" cy="4.6" r="1.3"/>
	<path d="M9.1,14.6c-0.3-0.2-0.7-0.2-1,0.1l-4.2,5c-0.2,0.3-0.2,0.6,0,0.9l4.2,5c0.2,0.3,0.7,0.3,1,0.1c0.3-0.2,0.3-0.7,0.1-1
		l-3.8-4.6l3.8-4.6C9.4,15.2,9.4,14.8,9.1,14.6L9.1,14.6z M38.4,25.7c0.3,0.2,0.7,0.2,1-0.1l4.2-5c0.2-0.3,0.2-0.6,0-0.9l-4.2-5
		c-0.2-0.3-0.7-0.3-1-0.1c-0.3,0.2-0.3,0.7-0.1,1l3.8,4.6l-3.8,4.6C38.1,25,38.1,25.4,38.4,25.7L38.4,25.7z M26.5,24.9
		c0.4,0,0.7-0.3,0.7-0.7v-8.2c0-0.4-0.3-0.7-0.7-0.7s-0.7,0.3-0.7,0.7v3.3h-4.3v-3.3c0-0.4-0.3-0.7-0.7-0.7s-0.7,0.3-0.7,0.7v8.2
		c0,0.4,0.3,0.7,0.7,0.7s0.7-0.3,0.7-0.7v-3.5h4.3v3.5C25.8,24.6,26.1,24.9,26.5,24.9L26.5,24.9z M13.5,24.2v-2.9c0.5,0,1.1,0,1.6,0
		c1.7,0,3-1.3,3-3s-1.4-3-3-3h-2.3c-0.4,0-0.7,0.3-0.7,0.7v8.2c0,0.4,0.3,0.7,0.7,0.7S13.5,24.6,13.5,24.2L13.5,24.2z M15.1,16.8
		c0.9,0,1.7,0.7,1.7,1.6S16,20,15.1,20c-0.4,0-1,0-1.6,0c0-0.5,0-2.7,0-3.2L15.1,16.8L15.1,16.8z M30.3,15.9c0,0.1,0,0.1,0,0.2v8.2
		c0,0.4,0.3,0.7,0.7,0.7s0.7-0.3,0.7-0.7v-2.9c0.5,0,1.2,0,1.6,0c1.7,0,3-1.3,3-3s-1.4-3-3-3H31C30.7,15.4,30.4,15.6,30.3,15.9
		L30.3,15.9z M33.2,16.8c0.9,0,1.7,0.7,1.7,1.6c0,0.9-0.8,1.6-1.7,1.6c-0.4,0-1,0-1.6,0c0-0.5,0-2.7,0-3.2L33.2,16.8L33.2,16.8z"/>
</g>
</svg>
