<svg xmlns="http://www.w3.org/2000/svg" version="1.1" xmlns:xlink="http://www.w3.org/1999/xlink" xmlns:svgjs="http://svgjs.com/svgjs" width="512" height="512" x="0" y="0" viewBox="0 0 64 64" style="enable-background:new 0 0 512 512" xml:space="preserve" class=""><g><circle cx="29" cy="14" r="2" fill="#000000" data-original="#000000"></circle><path d="M52 21h-6v-9c0-2.757-2.243-5-5-5H27c-2.757 0-5 2.243-5 5v7H12c-2.757 0-5 2.243-5 5v14c0 2.757 2.243 5 5 5h6v9c0 2.757 2.243 5 5 5h14c2.757 0 5-2.243 5-5v-7h10c2.757 0 5-2.243 5-5V26c0-2.757-2.243-5-5-5zM9 38V24c0-1.654 1.346-3 3-3h22c1.323 0 1.324-2 0-2H24v-7c0-1.654 1.346-3 3-3h14c1.654 0 3 1.346 3 3v16c0 1.654-1.346 3-3 3H23c-2.757 0-5 2.243-5 5v5h-6c-1.654 0-3-1.346-3-3zm46 2c0 1.654-1.346 3-3 3H30c-1.323 0-1.324 2 0 2h10v7c0 1.654-1.346 3-3 3H23c-1.654 0-3-1.346-3-3V36c0-1.654 1.346-3 3-3h18c2.757 0 5-2.243 5-5v-5h6c1.654 0 3 1.346 3 3z" fill="#000000" data-original="#000000"></path><circle cx="35" cy="50" r="2" fill="#000000" data-original="#000000"></circle></g></svg>