<?xml version="1.0" encoding="utf-8"?>
<!-- Generator: Adobe Illustrator 26.5.3, SVG Export Plug-In . SVG Version: 6.00 Build 0)  -->
<svg version="1.1" id="Layer_1" xmlns:svgjs="http://svgjs.com/svgjs"
	 xmlns="http://www.w3.org/2000/svg" xmlns:xlink="http://www.w3.org/1999/xlink" x="0px" y="0px" width="42.521px" height="36px"
	 viewBox="0 0 42.521 36" style="enable-background:new 0 0 42.521 36;" xml:space="preserve">
<g>
	<path d="M42.521,18.203c0-3.064-3.861-5.291-9.155-6.596c1.813-4.69,2.128-8.75-0.213-10.486c-0.641-0.475-1.432-0.716-2.348-0.716
		c-2.735,0-6.51,2.194-10.397,5.841C16.479,2.352,12.668,0,9.95,0C9.119,0,8.398,0.215,7.804,0.64
		C5.963,1.961,5.693,4.949,7.023,9.28c0.261,0.85,0.59,1.736,0.959,2.64C3.302,13.256,0,15.371,0,18.203
		c0,2.791,3.206,4.886,7.776,6.223c-1.939,4.847-2.344,9.076,0.06,10.858C8.478,35.76,9.268,36,10.184,36
		c2.733,0,6.502-2.189,10.385-5.83c3.72,3.549,7.287,5.664,9.868,5.664c0.831,0,1.553-0.215,2.147-0.64
		c2.272-1.63,1.973-5.612,0.225-10.267C38.385,23.649,42.521,21.376,42.521,18.203L42.521,18.203z M30.805,2.15
		c0.533,0,0.974,0.126,1.308,0.374c1.385,1.026,1.232,4.314-0.482,8.701c-2.361-0.47-4.934-0.771-7.534-0.898
		c-0.79-0.97-1.614-1.912-2.47-2.825C25.404,3.978,28.786,2.15,30.805,2.15z M13.918,22.419c0.408,0.568,0.822,1.121,1.239,1.664
		c-1.673-0.181-3.333-0.459-4.974-0.831c0.568-1.228,1.193-2.428,1.872-3.598C12.651,20.592,13.272,21.514,13.918,22.419
		L13.918,22.419z M10.402,13.112c1.482-0.33,2.98-0.58,4.488-0.75c-0.277,0.356-0.553,0.712-0.825,1.079
		c-0.693,0.939-1.358,1.898-1.992,2.878C11.475,15.271,10.918,14.201,10.402,13.112L10.402,13.112z M13.063,17.987
		c0.757-1.199,1.559-2.369,2.404-3.508c0.611-0.824,1.224-1.598,1.836-2.342c1.973-0.136,3.951-0.169,5.927-0.101
		c0.626,0.785,1.233,1.585,1.82,2.4c0.974,1.359,1.888,2.759,2.742,4.196c-1.272,1.994-2.668,3.906-4.178,5.726
		c-0.768,0.031-1.55,0.051-2.354,0.051c-1.287,0-2.522-0.047-3.715-0.124c-0.765-0.939-1.502-1.9-2.209-2.883
		C14.538,20.29,13.78,19.151,13.063,17.987L13.063,17.987z M26.923,22.969c0.636-0.864,1.248-1.745,1.835-2.642
		c0.594,1.082,1.142,2.188,1.643,3.316c-1.466,0.257-2.943,0.446-4.426,0.567C26.292,23.802,26.61,23.392,26.923,22.969z
		 M26.467,13.419c-0.309-0.428-0.619-0.846-0.93-1.259c1.949,0.146,3.761,0.386,5.402,0.701c-0.636,1.403-1.346,2.771-2.127,4.099
		C28.074,15.752,27.292,14.571,26.467,13.419z M21.768,10.261c-0.169-0.002-0.339-0.004-0.509-0.004
		c-0.794,0-1.592,0.018-2.388,0.052c0.49-0.542,0.992-1.072,1.507-1.589C20.852,9.224,21.315,9.738,21.768,10.261L21.768,10.261z
		 M8.819,2.06c0.29-0.208,0.671-0.313,1.13-0.313c1.99,0,5.392,1.952,9.21,5.722c-0.949,0.962-1.86,1.959-2.731,2.991
		c-2.358,0.2-4.652,0.543-6.744,1.027C9.31,10.598,8.978,9.692,8.69,8.772C7.646,5.374,7.695,2.866,8.819,2.06L8.819,2.06z
		 M1.743,18.203c0-1.667,2.594-3.44,6.94-4.664c0.707,1.52,1.489,3.003,2.345,4.444c-0.943,1.559-1.798,3.169-2.559,4.824
		C4.251,21.589,1.743,19.844,1.743,18.203z M10.183,34.258c-0.534,0-0.975-0.126-1.309-0.373c-1.417-1.05-1.221-4.469,0.605-9.008
		c2.217,0.526,4.669,0.891,7.189,1.092c0.849,1.022,1.735,2.012,2.658,2.968C15.564,32.442,12.196,34.258,10.183,34.258
		L10.183,34.258z M19.089,26.111c0.995,0.037,1.99,0.049,2.986,0.035c-0.486,0.535-0.983,1.059-1.493,1.572
		C20.073,27.193,19.575,26.657,19.089,26.111z M31.567,33.779c-1.483,1.065-5.287-0.613-9.741-4.833
		c0.916-0.928,1.796-1.89,2.639-2.885c2.274-0.127,4.522-0.385,6.617-0.774C32.739,29.622,32.895,32.825,31.567,33.779z
		 M32.146,23.291c-0.694-1.585-1.471-3.132-2.329-4.634c1.101-1.808,2.082-3.642,2.871-5.415c5.034,1.218,8.088,3.153,8.088,4.962
		C40.777,20.078,37.5,22.083,32.146,23.291L32.146,23.291z"/>
	<circle cx="21.26" cy="18.204" r="3.386"/>
</g>
</svg>
